<mxfile host="app.diagrams.net" agent="Mozilla/5.0 (Macintosh; Intel Mac OS X 10_15_7) AppleWebKit/537.36 (KHTML, like Gecko) Chrome/135.0.0.0 Safari/537.36 Edg/135.0.0.0" version="26.2.9">
  <diagram name="第 1 页" id="5oC_u--elwQRbg6stWUG">
    <mxGraphModel dx="1104" dy="615" grid="1" gridSize="10" guides="1" tooltips="1" connect="1" arrows="1" fold="1" page="1" pageScale="1" pageWidth="827" pageHeight="1169" math="1" shadow="0">
      <root>
        <mxCell id="0" />
        <mxCell id="1" parent="0" />
        <mxCell id="oQPVEWLI9KSgpzc_tTf6-24" value="" style="rounded=0;whiteSpace=wrap;html=1;dashed=1;fillColor=#F5F5F5;fontColor=#333333;strokeColor=#666666;strokeWidth=2;fontFamily=Times New Roman;" parent="1" vertex="1">
          <mxGeometry x="289" y="38.26" width="421" height="240" as="geometry" />
        </mxCell>
        <mxCell id="oQPVEWLI9KSgpzc_tTf6-1" value="&lt;div&gt;&lt;font&gt;&lt;b&gt;&lt;br&gt;&lt;/b&gt;&lt;/font&gt;&lt;/div&gt;&lt;div&gt;&lt;font&gt;&lt;b&gt;&lt;br&gt;&lt;/b&gt;&lt;/font&gt;&lt;/div&gt;&lt;div&gt;&lt;font&gt;&lt;b&gt;&lt;br&gt;&lt;/b&gt;&lt;/font&gt;&lt;/div&gt;&lt;div&gt;&lt;font&gt;&lt;b&gt;&lt;br&gt;&lt;/b&gt;&lt;/font&gt;&lt;/div&gt;&lt;div&gt;&lt;font&gt;&lt;b&gt;&lt;br&gt;&lt;/b&gt;&lt;/font&gt;&lt;/div&gt;&lt;div&gt;&lt;b&gt;&lt;br&gt;&lt;/b&gt;&lt;/div&gt;&lt;div&gt;&lt;br&gt;&lt;/div&gt;&lt;div&gt;&lt;b style=&quot;background-color: initial;&quot;&gt;BackBone&lt;/b&gt;&lt;/div&gt;&lt;div&gt;&lt;b style=&quot;background-color: initial;&quot;&gt;Extractor&lt;/b&gt;&lt;/div&gt;" style="whiteSpace=wrap;html=1;fillColor=#d5e8d4;strokeColor=#82b366;opacity=70;fontFamily=Times New Roman;" parent="1" vertex="1">
          <mxGeometry x="40" y="140" width="80" height="142.81" as="geometry" />
        </mxCell>
        <mxCell id="oQPVEWLI9KSgpzc_tTf6-2" style="rounded=0;orthogonalLoop=1;jettySize=auto;html=1;exitX=0.5;exitY=1;exitDx=0;exitDy=0;entryX=0.5;entryY=0;entryDx=0;entryDy=0;endArrow=block;endFill=1;fontFamily=Times New Roman;" parent="1" target="oQPVEWLI9KSgpzc_tTf6-6" edge="1">
          <mxGeometry relative="1" as="geometry">
            <mxPoint x="135.0000000000001" y="354.25" as="sourcePoint" />
          </mxGeometry>
        </mxCell>
        <mxCell id="oQPVEWLI9KSgpzc_tTf6-4" style="edgeStyle=orthogonalEdgeStyle;rounded=0;orthogonalLoop=1;jettySize=auto;html=1;fontFamily=Times New Roman;" parent="1" source="oQPVEWLI9KSgpzc_tTf6-5" target="oQPVEWLI9KSgpzc_tTf6-7" edge="1">
          <mxGeometry relative="1" as="geometry">
            <Array as="points">
              <mxPoint x="135" y="120" />
              <mxPoint x="189" y="120" />
            </Array>
            <mxPoint x="179.01864864864854" y="134.25" as="targetPoint" />
          </mxGeometry>
        </mxCell>
        <mxCell id="T_FOPEBpzpQEU7bBr1gE-9" style="edgeStyle=orthogonalEdgeStyle;rounded=0;orthogonalLoop=1;jettySize=auto;html=1;entryX=0.5;entryY=0;entryDx=0;entryDy=0;exitX=0.5;exitY=1;exitDx=0;exitDy=0;fontFamily=Times New Roman;" parent="1" source="oQPVEWLI9KSgpzc_tTf6-5" target="T_FOPEBpzpQEU7bBr1gE-2" edge="1">
          <mxGeometry relative="1" as="geometry">
            <mxPoint x="65.00000000000006" y="173.01999999999998" as="targetPoint" />
            <Array as="points">
              <mxPoint x="135" y="120" />
              <mxPoint x="65" y="120" />
            </Array>
          </mxGeometry>
        </mxCell>
        <mxCell id="T_FOPEBpzpQEU7bBr1gE-10" style="edgeStyle=orthogonalEdgeStyle;rounded=0;orthogonalLoop=1;jettySize=auto;html=1;exitX=0.5;exitY=1;exitDx=0;exitDy=0;entryX=0.75;entryY=0;entryDx=0;entryDy=0;fontFamily=Times New Roman;" parent="1" source="oQPVEWLI9KSgpzc_tTf6-5" target="T_FOPEBpzpQEU7bBr1gE-1" edge="1">
          <mxGeometry relative="1" as="geometry">
            <Array as="points">
              <mxPoint x="135" y="120" />
              <mxPoint x="95" y="120" />
            </Array>
          </mxGeometry>
        </mxCell>
        <mxCell id="oQPVEWLI9KSgpzc_tTf6-5" value="&lt;font&gt;Inputs&lt;/font&gt;" style="rounded=1;whiteSpace=wrap;html=1;fillColor=#fff2cc;strokeColor=#d6b656;opacity=70;fontFamily=Times New Roman;" parent="1" vertex="1">
          <mxGeometry x="90" y="54.25" width="90" height="30" as="geometry" />
        </mxCell>
        <mxCell id="oQPVEWLI9KSgpzc_tTf6-6" value="&lt;font&gt;Output&lt;/font&gt;" style="rounded=1;whiteSpace=wrap;html=1;fillColor=#fff2cc;strokeColor=#d6b656;opacity=70;fontFamily=Times New Roman;" parent="1" vertex="1">
          <mxGeometry x="90" y="392" width="90" height="30" as="geometry" />
        </mxCell>
        <mxCell id="oQPVEWLI9KSgpzc_tTf6-7" value="&lt;div&gt;&lt;font&gt;Extractor&lt;/font&gt;&lt;/div&gt;" style="shape=trapezoid;perimeter=trapezoidPerimeter;whiteSpace=wrap;html=1;fixedSize=1;fillColor=#FFE6CC;strokeColor=#D79B00;opacity=70;fontFamily=Times New Roman;" parent="1" vertex="1">
          <mxGeometry x="144.37" y="134.25" width="89" height="30" as="geometry" />
        </mxCell>
        <mxCell id="oQPVEWLI9KSgpzc_tTf6-8" value="" style="verticalLabelPosition=bottom;verticalAlign=top;html=1;shape=mxgraph.flowchart.summing_function;fontFamily=Times New Roman;" parent="1" vertex="1">
          <mxGeometry x="125" y="334.25" width="20" height="20" as="geometry" />
        </mxCell>
        <mxCell id="oQPVEWLI9KSgpzc_tTf6-9" style="edgeStyle=orthogonalEdgeStyle;rounded=0;orthogonalLoop=1;jettySize=auto;html=1;exitX=0.5;exitY=1;exitDx=0;exitDy=0;entryX=0;entryY=0.5;entryDx=0;entryDy=0;entryPerimeter=0;endArrow=block;endFill=1;fontFamily=Times New Roman;" parent="1" source="oQPVEWLI9KSgpzc_tTf6-1" target="oQPVEWLI9KSgpzc_tTf6-8" edge="1">
          <mxGeometry relative="1" as="geometry" />
        </mxCell>
        <mxCell id="oQPVEWLI9KSgpzc_tTf6-10" value="" style="shape=trapezoid;perimeter=trapezoidPerimeter;whiteSpace=wrap;html=1;fixedSize=1;fillColor=#FFE6CC;strokeColor=#D79B00;rotation=-180;opacity=70;fontFamily=Times New Roman;" parent="1" vertex="1">
          <mxGeometry x="144.37" y="294.25" width="89" height="30" as="geometry" />
        </mxCell>
        <mxCell id="oQPVEWLI9KSgpzc_tTf6-11" value="Predictor" style="text;strokeColor=none;align=center;fillColor=none;html=1;verticalAlign=middle;whiteSpace=wrap;rounded=0;fontFamily=Times New Roman;" parent="1" vertex="1">
          <mxGeometry x="160.24" y="294.25" width="60" height="30" as="geometry" />
        </mxCell>
        <mxCell id="oQPVEWLI9KSgpzc_tTf6-12" style="edgeStyle=orthogonalEdgeStyle;rounded=0;orthogonalLoop=1;jettySize=auto;html=1;exitX=0.5;exitY=1;exitDx=0;exitDy=0;entryX=1;entryY=0.5;entryDx=0;entryDy=0;entryPerimeter=0;endArrow=block;endFill=1;fontFamily=Times New Roman;" parent="1" source="oQPVEWLI9KSgpzc_tTf6-11" target="oQPVEWLI9KSgpzc_tTf6-8" edge="1">
          <mxGeometry relative="1" as="geometry">
            <mxPoint x="155.24" y="344.25" as="targetPoint" />
            <Array as="points">
              <mxPoint x="190" y="344" />
            </Array>
          </mxGeometry>
        </mxCell>
        <mxCell id="T_FOPEBpzpQEU7bBr1gE-23" style="rounded=0;orthogonalLoop=1;jettySize=auto;html=1;exitX=1;exitY=0;exitDx=0;exitDy=0;entryX=0;entryY=0;entryDx=0;entryDy=0;endArrow=none;endFill=0;dashed=1;fillColor=#f5f5f5;strokeColor=#666666;fontFamily=Times New Roman;" parent="1" source="oQPVEWLI9KSgpzc_tTf6-13" target="oQPVEWLI9KSgpzc_tTf6-24" edge="1">
          <mxGeometry relative="1" as="geometry" />
        </mxCell>
        <mxCell id="oQPVEWLI9KSgpzc_tTf6-13" value="" style="rounded=0;whiteSpace=wrap;html=1;dashed=1;fillColor=#f5f5f5;fontColor=#333333;strokeColor=#666666;strokeWidth=2;fontFamily=Times New Roman;" parent="1" vertex="1">
          <mxGeometry x="138.63" y="174.25" width="107.98" height="104.01" as="geometry" />
        </mxCell>
        <mxCell id="oQPVEWLI9KSgpzc_tTf6-14" style="edgeStyle=orthogonalEdgeStyle;rounded=0;orthogonalLoop=1;jettySize=auto;html=1;exitX=0.25;exitY=1;exitDx=0;exitDy=0;entryX=0.5;entryY=0;entryDx=0;entryDy=0;fontFamily=Times New Roman;" parent="1" edge="1">
          <mxGeometry relative="1" as="geometry">
            <mxPoint x="188.87" y="294.25" as="targetPoint" />
            <mxPoint x="187.43499999999983" y="265.76" as="sourcePoint" />
          </mxGeometry>
        </mxCell>
        <mxCell id="oQPVEWLI9KSgpzc_tTf6-15" style="edgeStyle=orthogonalEdgeStyle;rounded=0;orthogonalLoop=1;jettySize=auto;html=1;exitX=0.5;exitY=1;exitDx=0;exitDy=0;entryX=0.625;entryY=0.013;entryDx=0;entryDy=0;entryPerimeter=0;fontFamily=Times New Roman;" parent="1" edge="1">
          <mxGeometry relative="1" as="geometry">
            <mxPoint x="188.61" y="164.25" as="sourcePoint" />
            <mxPoint x="189.02625" y="185.0852500000001" as="targetPoint" />
          </mxGeometry>
        </mxCell>
        <mxCell id="oQPVEWLI9KSgpzc_tTf6-16" value="" style="whiteSpace=wrap;html=1;aspect=fixed;fillColor=#7EA6E0;strokeColor=#007FFF;opacity=60;fontFamily=Times New Roman;" parent="1" vertex="1">
          <mxGeometry x="171.75" y="203.01999999999998" width="62.74" height="62.74" as="geometry" />
        </mxCell>
        <mxCell id="oQPVEWLI9KSgpzc_tTf6-17" value="" style="whiteSpace=wrap;html=1;aspect=fixed;fillColor=#7EA6E0;strokeColor=#007FFF;opacity=40;fontFamily=Times New Roman;" parent="1" vertex="1">
          <mxGeometry x="160.24" y="194.38999999999987" width="62.74" height="62.74" as="geometry" />
        </mxCell>
        <mxCell id="oQPVEWLI9KSgpzc_tTf6-19" value="&lt;font&gt;&lt;b&gt;Multi-layer&lt;/b&gt;&lt;/font&gt;&lt;div&gt;&lt;font&gt;&lt;b&gt;Residual&lt;br&gt;Fusion&lt;/b&gt;&lt;/font&gt;&lt;/div&gt;" style="whiteSpace=wrap;html=1;aspect=fixed;fillColor=#7EA6E0;strokeColor=#007FFF;opacity=50;fontFamily=Times New Roman;" parent="1" vertex="1">
          <mxGeometry x="148.87" y="184.25" width="64.25" height="64.25" as="geometry" />
        </mxCell>
        <mxCell id="oQPVEWLI9KSgpzc_tTf6-20" style="edgeStyle=orthogonalEdgeStyle;rounded=0;orthogonalLoop=1;jettySize=auto;html=1;exitX=0.5;exitY=1;exitDx=0;exitDy=0;endArrow=block;endFill=1;entryX=0.5;entryY=0;entryDx=0;entryDy=0;fontFamily=Times New Roman;" parent="1" source="oQPVEWLI9KSgpzc_tTf6-21" target="oQPVEWLI9KSgpzc_tTf6-23" edge="1">
          <mxGeometry relative="1" as="geometry">
            <mxPoint x="368" y="270" as="targetPoint" />
          </mxGeometry>
        </mxCell>
        <mxCell id="oQPVEWLI9KSgpzc_tTf6-21" value="&lt;font style=&quot;font-size: 14px;&quot;&gt;Fine-grained&lt;/font&gt;&lt;div style=&quot;font-size: 14px;&quot;&gt;&lt;font style=&quot;font-size: 14px;&quot;&gt;Local Info&lt;/font&gt;&lt;/div&gt;" style="rounded=1;whiteSpace=wrap;html=1;fillColor=#fff2cc;strokeColor=#d6b656;fontFamily=Times New Roman;" parent="1" vertex="1">
          <mxGeometry x="307.88" y="179.76" width="120" height="36" as="geometry" />
        </mxCell>
        <mxCell id="oQPVEWLI9KSgpzc_tTf6-22" style="edgeStyle=orthogonalEdgeStyle;rounded=0;orthogonalLoop=1;jettySize=auto;html=1;entryX=1.005;entryY=0.832;entryDx=0;entryDy=0;entryPerimeter=0;fontFamily=Times New Roman;" parent="1" source="oQPVEWLI9KSgpzc_tTf6-23" target="oQPVEWLI9KSgpzc_tTf6-16" edge="1">
          <mxGeometry relative="1" as="geometry" />
        </mxCell>
        <mxCell id="oQPVEWLI9KSgpzc_tTf6-23" value="&lt;font&gt;&lt;span style=&quot;font-size: 14px;&quot;&gt;Add &amp;amp; Norm&lt;/span&gt;&lt;/font&gt;" style="rounded=1;whiteSpace=wrap;html=1;fillColor=#fad9d5;strokeColor=#ae4132;opacity=70;fontFamily=Times New Roman;" parent="1" vertex="1">
          <mxGeometry x="307.87" y="236.89999999999998" width="120" height="36" as="geometry" />
        </mxCell>
        <mxCell id="oQPVEWLI9KSgpzc_tTf6-25" style="edgeStyle=orthogonalEdgeStyle;rounded=0;orthogonalLoop=1;jettySize=auto;html=1;endArrow=block;endFill=1;fontFamily=Times New Roman;" parent="1" edge="1">
          <mxGeometry relative="1" as="geometry">
            <mxPoint x="367.62999999999965" y="151.12" as="sourcePoint" />
            <mxPoint x="368" y="180" as="targetPoint" />
          </mxGeometry>
        </mxCell>
        <mxCell id="oQPVEWLI9KSgpzc_tTf6-26" style="rounded=0;orthogonalLoop=1;jettySize=auto;html=1;entryX=0;entryY=0.5;entryDx=0;entryDy=0;strokeColor=#000000;endArrow=block;endFill=1;fontFamily=Times New Roman;" parent="1" edge="1">
          <mxGeometry relative="1" as="geometry">
            <mxPoint x="409" y="70" as="sourcePoint" />
            <mxPoint x="471.98" y="70.5" as="targetPoint" />
          </mxGeometry>
        </mxCell>
        <mxCell id="oQPVEWLI9KSgpzc_tTf6-27" style="rounded=0;orthogonalLoop=1;jettySize=auto;html=1;exitX=0;exitY=0.5;exitDx=0;exitDy=0;endArrow=block;endFill=1;entryX=0.992;entryY=0.075;entryDx=0;entryDy=0;entryPerimeter=0;fontFamily=Times New Roman;" parent="1" target="oQPVEWLI9KSgpzc_tTf6-29" edge="1">
          <mxGeometry relative="1" as="geometry">
            <mxPoint x="407.47" y="125.1" as="targetPoint" />
            <mxPoint x="480.98" y="124" as="sourcePoint" />
          </mxGeometry>
        </mxCell>
        <mxCell id="oQPVEWLI9KSgpzc_tTf6-28" value="" style="shape=singleArrow;direction=south;whiteSpace=wrap;html=1;fillColor=#E1D5E7;strokeColor=#9673A6;dashed=1;strokeWidth=2;gradientColor=none;fontFamily=Times New Roman;" parent="1" vertex="1">
          <mxGeometry x="357.5" y="86.12" width="20.27" height="50" as="geometry" />
        </mxCell>
        <mxCell id="oQPVEWLI9KSgpzc_tTf6-29" value="" style="shape=parallelogram;perimeter=parallelogramPerimeter;whiteSpace=wrap;html=1;fixedSize=1;fillColor=#7EA6E0;shadow=0;strokeColor=#7AA1D9;opacity=70;strokeWidth=2;fontFamily=Times New Roman;" parent="1" vertex="1">
          <mxGeometry x="327.63" y="121.12" width="80" height="30" as="geometry" />
        </mxCell>
        <mxCell id="oQPVEWLI9KSgpzc_tTf6-30" style="rounded=0;orthogonalLoop=1;jettySize=auto;html=1;exitX=0;exitY=1;exitDx=0;exitDy=0;entryX=0;entryY=1;entryDx=0;entryDy=0;endArrow=none;endFill=0;strokeColor=#7EA6E0;strokeWidth=2;opacity=50;fontFamily=Times New Roman;" parent="1" source="oQPVEWLI9KSgpzc_tTf6-34" edge="1">
          <mxGeometry relative="1" as="geometry">
            <mxPoint x="327.63" y="81.12" as="sourcePoint" />
            <mxPoint x="327.63" y="151.12" as="targetPoint" />
          </mxGeometry>
        </mxCell>
        <mxCell id="oQPVEWLI9KSgpzc_tTf6-31" style="rounded=0;orthogonalLoop=1;jettySize=auto;html=1;exitX=0.25;exitY=0;exitDx=0;exitDy=0;entryX=0;entryY=1;entryDx=0;entryDy=0;endArrow=none;endFill=0;strokeColor=#7EA6E0;dashed=1;strokeWidth=2;opacity=50;fontFamily=Times New Roman;" parent="1" source="oQPVEWLI9KSgpzc_tTf6-34" edge="1">
          <mxGeometry relative="1" as="geometry">
            <mxPoint x="347.49" y="51.12" as="sourcePoint" />
            <mxPoint x="347.49" y="121.12" as="targetPoint" />
          </mxGeometry>
        </mxCell>
        <mxCell id="oQPVEWLI9KSgpzc_tTf6-32" style="rounded=0;orthogonalLoop=1;jettySize=auto;html=1;exitX=1;exitY=0;exitDx=0;exitDy=0;entryX=0;entryY=1;entryDx=0;entryDy=0;endArrow=none;endFill=0;strokeColor=#7EA6E0;strokeWidth=2;opacity=50;fontFamily=Times New Roman;" parent="1" source="oQPVEWLI9KSgpzc_tTf6-34" edge="1">
          <mxGeometry relative="1" as="geometry">
            <mxPoint x="407.37" y="51.12" as="sourcePoint" />
            <mxPoint x="407.37" y="121.12" as="targetPoint" />
          </mxGeometry>
        </mxCell>
        <mxCell id="oQPVEWLI9KSgpzc_tTf6-33" value="" style="shape=parallelogram;perimeter=parallelogramPerimeter;whiteSpace=wrap;html=1;fixedSize=1;shadow=1;gradientColor=none;fillColor=#DAE8FC;opacity=50;strokeColor=#7EA6E0;strokeWidth=2;fontFamily=Times New Roman;" parent="1" vertex="1">
          <mxGeometry x="327.63" y="71.12" width="80" height="30" as="geometry" />
        </mxCell>
        <mxCell id="oQPVEWLI9KSgpzc_tTf6-34" value="" style="shape=parallelogram;perimeter=parallelogramPerimeter;whiteSpace=wrap;html=1;fixedSize=1;shadow=0;gradientColor=none;fillColor=#DAE8FC;opacity=30;strokeColor=#7EA6E0;strokeWidth=2;fontFamily=Times New Roman;" parent="1" vertex="1">
          <mxGeometry x="327.63" y="61.12" width="80" height="30" as="geometry" />
        </mxCell>
        <mxCell id="oQPVEWLI9KSgpzc_tTf6-35" style="rounded=0;orthogonalLoop=1;jettySize=auto;html=1;entryX=0.75;entryY=1;entryDx=0;entryDy=0;endArrow=none;endFill=0;strokeColor=#7EA6E0;strokeWidth=2;opacity=50;fontFamily=Times New Roman;" parent="1" edge="1">
          <mxGeometry relative="1" as="geometry">
            <mxPoint x="387.63" y="91.12" as="sourcePoint" />
            <mxPoint x="387.63" y="151.12" as="targetPoint" />
          </mxGeometry>
        </mxCell>
        <mxCell id="oQPVEWLI9KSgpzc_tTf6-36" value="" style="shape=parallelogram;perimeter=parallelogramPerimeter;whiteSpace=wrap;html=1;fixedSize=1;shadow=1;gradientColor=none;fillColor=#7EA6E0;opacity=40;strokeColor=#7EA6E0;strokeWidth=2;fontFamily=Times New Roman;" parent="1" vertex="1">
          <mxGeometry x="327.63" y="111.12" width="80" height="30" as="geometry" />
        </mxCell>
        <mxCell id="oQPVEWLI9KSgpzc_tTf6-37" value="&lt;font&gt;Update&lt;/font&gt;" style="text;strokeColor=none;align=center;fillColor=none;html=1;verticalAlign=middle;whiteSpace=wrap;rounded=0;fontFamily=Times New Roman;" parent="1" vertex="1">
          <mxGeometry x="436.8699999999999" y="91.49" width="34.11" height="45" as="geometry" />
        </mxCell>
        <mxCell id="oQPVEWLI9KSgpzc_tTf6-38" value="" style="endArrow=none;dashed=1;html=1;rounded=0;strokeWidth=2;strokeColor=#696969;dashPattern=1 2;fontFamily=Times New Roman;" parent="1" edge="1">
          <mxGeometry width="50" height="50" relative="1" as="geometry">
            <mxPoint x="260" y="440" as="sourcePoint" />
            <mxPoint x="260" y="40" as="targetPoint" />
          </mxGeometry>
        </mxCell>
        <mxCell id="oQPVEWLI9KSgpzc_tTf6-39" value="&lt;font style=&quot;font-size: 13px;&quot;&gt;(a) Spatio-temporal &lt;/font&gt;&lt;font&gt;&lt;span style=&quot;font-size: 13px;&quot;&gt;Unitized Model&lt;/span&gt;&lt;/font&gt;" style="text;strokeColor=none;align=center;fillColor=none;html=1;verticalAlign=middle;whiteSpace=wrap;rounded=0;fontFamily=Times New Roman;" parent="1" vertex="1">
          <mxGeometry x="44.49999999999999" y="440" width="191.87" height="30" as="geometry" />
        </mxCell>
        <mxCell id="oQPVEWLI9KSgpzc_tTf6-40" value="&lt;font style=&quot;font-size: 13px;&quot;&gt;(b) Multi-Layer Residual Fusion Block&lt;/font&gt;" style="text;strokeColor=none;align=center;fillColor=none;html=1;verticalAlign=middle;whiteSpace=wrap;rounded=0;fontFamily=Times New Roman;" parent="1" vertex="1">
          <mxGeometry x="396.84000000000003" y="272.82" width="209.02" height="30" as="geometry" />
        </mxCell>
        <mxCell id="oQPVEWLI9KSgpzc_tTf6-43" style="edgeStyle=orthogonalEdgeStyle;rounded=0;orthogonalLoop=1;jettySize=auto;html=1;exitX=0.5;exitY=1;exitDx=0;exitDy=0;entryX=0.5;entryY=0;entryDx=0;entryDy=0;strokeColor=#CDA2BE;strokeWidth=2;fontFamily=Times New Roman;" parent="1" source="oQPVEWLI9KSgpzc_tTf6-44" target="oQPVEWLI9KSgpzc_tTf6-47" edge="1">
          <mxGeometry relative="1" as="geometry" />
        </mxCell>
        <mxCell id="oQPVEWLI9KSgpzc_tTf6-44" value="" style="rounded=0;whiteSpace=wrap;html=1;fillColor=#e1d5e7;strokeColor=#9673a6;opacity=70;fontFamily=Times New Roman;" parent="1" vertex="1">
          <mxGeometry x="576" y="54.7" width="98" height="32" as="geometry" />
        </mxCell>
        <mxCell id="oQPVEWLI9KSgpzc_tTf6-45" value="&lt;br style=&quot;font-size: 12px;&quot;&gt;&lt;span style=&quot;font-size: 12px; color: rgb(53, 53, 53); text-align: left; background-color: rgb(149, 236, 105);&quot;&gt;$$ASTUC \, \mathcal{G}_t^{(1)}$$&lt;/span&gt;" style="text;strokeColor=none;align=center;fillColor=none;html=1;verticalAlign=middle;whiteSpace=wrap;rounded=0;fontSize=11;fontFamily=Times New Roman;" parent="1" vertex="1">
          <mxGeometry x="595" y="52.7" width="60" height="20" as="geometry" />
        </mxCell>
        <mxCell id="oQPVEWLI9KSgpzc_tTf6-47" value="" style="rounded=0;whiteSpace=wrap;html=1;fillColor=#E1D5E7;strokeColor=#9673a6;opacity=70;fontFamily=Times New Roman;" parent="1" vertex="1">
          <mxGeometry x="585" y="134.45" width="80" height="40" as="geometry" />
        </mxCell>
        <mxCell id="oQPVEWLI9KSgpzc_tTf6-48" value="&lt;br style=&quot;font-size: 12px;&quot;&gt;&lt;span style=&quot;font-size: 12px; color: rgb(53, 53, 53); text-align: left; background-color: rgb(149, 236, 105);&quot;&gt;$$ASTUC \, \mathcal{G}_s^{(1)}$$&lt;/span&gt;" style="text;strokeColor=none;align=center;fillColor=none;html=1;verticalAlign=middle;whiteSpace=wrap;rounded=0;fontSize=11;fontFamily=Times New Roman;" parent="1" vertex="1">
          <mxGeometry x="595" y="138.69" width="60" height="20" as="geometry" />
        </mxCell>
        <mxCell id="oQPVEWLI9KSgpzc_tTf6-54" value="" style="endArrow=block;html=1;rounded=0;endFill=1;fontFamily=Times New Roman;" parent="1" edge="1">
          <mxGeometry width="50" height="50" relative="1" as="geometry">
            <mxPoint x="559" y="115.76" as="sourcePoint" />
            <mxPoint x="619" y="116" as="targetPoint" />
          </mxGeometry>
        </mxCell>
        <mxCell id="oQPVEWLI9KSgpzc_tTf6-55" value="&lt;div style=&quot;text-align: left;&quot;&gt;&lt;span style=&quot;background-color: initial;&quot;&gt;z: ST&amp;nbsp;&lt;/span&gt;&lt;span style=&quot;background-color: initial; text-align: center;&quot;&gt;Relationship&lt;/span&gt;&lt;/div&gt;" style="text;strokeColor=none;align=center;fillColor=none;html=1;verticalAlign=middle;whiteSpace=wrap;rounded=0;fontFamily=Times New Roman;" parent="1" vertex="1">
          <mxGeometry x="485" y="242.81" width="100" height="40" as="geometry" />
        </mxCell>
        <mxCell id="oQPVEWLI9KSgpzc_tTf6-58" style="rounded=0;orthogonalLoop=1;jettySize=auto;html=1;exitX=1;exitY=0.5;exitDx=0;exitDy=0;entryX=0;entryY=0.5;entryDx=0;entryDy=0;endArrow=block;endFill=1;fontFamily=Times New Roman;" parent="1" source="oQPVEWLI9KSgpzc_tTf6-59" target="oQPVEWLI9KSgpzc_tTf6-44" edge="1">
          <mxGeometry relative="1" as="geometry" />
        </mxCell>
        <mxCell id="T_FOPEBpzpQEU7bBr1gE-38" style="edgeStyle=orthogonalEdgeStyle;rounded=0;orthogonalLoop=1;jettySize=auto;html=1;exitX=1;exitY=0.5;exitDx=0;exitDy=0;entryX=0;entryY=0.5;entryDx=0;entryDy=0;fontFamily=Times New Roman;" parent="1" source="oQPVEWLI9KSgpzc_tTf6-59" target="T_FOPEBpzpQEU7bBr1gE-37" edge="1">
          <mxGeometry relative="1" as="geometry">
            <Array as="points">
              <mxPoint x="559" y="70" />
              <mxPoint x="559" y="204" />
            </Array>
          </mxGeometry>
        </mxCell>
        <mxCell id="oQPVEWLI9KSgpzc_tTf6-59" value="&lt;font style=&quot;font-size: 14px;&quot;&gt;Norm&lt;/font&gt;" style="rounded=0;whiteSpace=wrap;html=1;fillColor=#f8cecc;strokeColor=#b85450;opacity=70;fontFamily=Times New Roman;" parent="1" vertex="1">
          <mxGeometry x="471.98" y="54.25" width="50" height="32.5" as="geometry" />
        </mxCell>
        <mxCell id="oQPVEWLI9KSgpzc_tTf6-60" value="" style="ellipse;whiteSpace=wrap;html=1;aspect=fixed;fillColor=#ffe6cc;strokeColor=#d79b00;fontFamily=Times New Roman;" parent="1" vertex="1">
          <mxGeometry x="481.98" y="110" width="30" height="30" as="geometry" />
        </mxCell>
        <mxCell id="oQPVEWLI9KSgpzc_tTf6-61" value="&lt;font&gt;&lt;svg style=&quot;vertical-align: -0.025ex;&quot; xmlns:xlink=&quot;http://www.w3.org/1999/xlink&quot; viewBox=&quot;0 -431 571 442&quot; role=&quot;img&quot; height=&quot;1ex&quot; width=&quot;1.292ex&quot; xmlns=&quot;http://www.w3.org/2000/svg&quot;&gt;&lt;defs&gt;&lt;path d=&quot;M184 -11Q116 -11 74 34T31 147Q31 247 104 333T274 430Q275 431 414 431H552Q553 430 555 429T559 427T562 425T565 422T567 420T569 416T570 412T571 407T572 401Q572 357 507 357Q500 357 490 357T476 358H416L421 348Q439 310 439 263Q439 153 359 71T184 -11ZM361 278Q361 358 276 358Q152 358 115 184Q114 180 114 178Q106 141 106 117Q106 67 131 47T188 26Q242 26 287 73Q316 103 334 153T356 233T361 278Z&quot; id=&quot;MJX-6-TEX-I-1D70E&quot;&gt;&lt;/path&gt;&lt;/defs&gt;&lt;g transform=&quot;scale(1,-1)&quot; stroke-width=&quot;0&quot; fill=&quot;currentColor&quot; stroke=&quot;currentColor&quot;&gt;&lt;g data-mml-node=&quot;math&quot;&gt;&lt;g data-mml-node=&quot;mi&quot;&gt;&lt;use xlink:href=&quot;#MJX-6-TEX-I-1D70E&quot; data-c=&quot;1D70E&quot;&gt;&lt;/use&gt;&lt;/g&gt;&lt;/g&gt;&lt;/g&gt;&lt;/svg&gt;&lt;/font&gt;" style="text;strokeColor=none;align=center;fillColor=none;html=1;verticalAlign=middle;whiteSpace=wrap;rounded=0;fontFamily=Times New Roman;fontSize=24;" parent="1" vertex="1">
          <mxGeometry x="470.9799999999999" y="109.51" width="54.11" height="26.98" as="geometry" />
        </mxCell>
        <mxCell id="oQPVEWLI9KSgpzc_tTf6-62" value="&lt;font style=&quot;font-size: 12px;&quot;&gt;y:Space&amp;nbsp;&lt;/font&gt;&lt;span style=&quot;background-color: initial; text-align: left;&quot;&gt;Info&lt;/span&gt;" style="text;strokeColor=none;align=center;fillColor=none;html=1;verticalAlign=middle;whiteSpace=wrap;rounded=0;fontFamily=Times New Roman;" parent="1" vertex="1">
          <mxGeometry x="609" y="174.45" width="100" height="32" as="geometry" />
        </mxCell>
        <mxCell id="oQPVEWLI9KSgpzc_tTf6-66" value="&lt;font style=&quot;font-size: 12px;&quot;&gt;x:Time&amp;nbsp;&lt;/font&gt;&lt;span style=&quot;background-color: initial;&quot;&gt;Info&lt;/span&gt;" style="text;strokeColor=none;align=left;fillColor=none;html=1;verticalAlign=middle;whiteSpace=wrap;rounded=0;fontFamily=Times New Roman;" parent="1" vertex="1">
          <mxGeometry x="629" y="87.25" width="100" height="32" as="geometry" />
        </mxCell>
        <mxCell id="oQPVEWLI9KSgpzc_tTf6-72" value="" style="rounded=0;orthogonalLoop=1;jettySize=auto;html=1;dashed=1;fillColor=#e1d5e7;strokeColor=#CDA2BE;strokeWidth=2;exitDx=0;exitDy=0;movable=1;resizable=1;rotatable=1;deletable=1;editable=1;locked=0;connectable=1;exitX=0.5;exitY=1;fontFamily=Times New Roman;" parent="1" source="oQPVEWLI9KSgpzc_tTf6-47" target="T_FOPEBpzpQEU7bBr1gE-33" edge="1">
          <mxGeometry relative="1" as="geometry">
            <mxPoint x="625" y="184.2" as="sourcePoint" />
            <mxPoint x="625" y="250.2" as="targetPoint" />
          </mxGeometry>
        </mxCell>
        <mxCell id="oQPVEWLI9KSgpzc_tTf6-78" value="" style="rounded=0;whiteSpace=wrap;html=1;dashed=1;fillColor=#e1d5e7;strokeColor=#9673a6;strokeWidth=2;fontFamily=Times New Roman;" parent="1" vertex="1">
          <mxGeometry x="272.98" y="300" width="240" height="138.5" as="geometry" />
        </mxCell>
        <mxCell id="oQPVEWLI9KSgpzc_tTf6-81" value="&lt;font&gt;&lt;b&gt;k-layers&lt;/b&gt;&lt;/font&gt;" style="text;strokeColor=none;align=center;fillColor=none;html=1;verticalAlign=middle;whiteSpace=wrap;rounded=0;fontFamily=Times New Roman;" parent="1" vertex="1">
          <mxGeometry x="543" y="203.21999999999997" width="100" height="32" as="geometry" />
        </mxCell>
        <mxCell id="oQPVEWLI9KSgpzc_tTf6-83" value="&lt;font style=&quot;font-size: 13px;&quot;&gt;(c) Adaptive Spatio-temporal Unitized Cell&lt;/font&gt;" style="text;strokeColor=none;align=center;fillColor=none;html=1;verticalAlign=middle;whiteSpace=wrap;rounded=0;fontFamily=Times New Roman;" parent="1" vertex="1">
          <mxGeometry x="387.25" y="438.5" width="238.12" height="30" as="geometry" />
        </mxCell>
        <mxCell id="oQPVEWLI9KSgpzc_tTf6-84" value="" style="verticalLabelPosition=bottom;verticalAlign=top;html=1;shape=mxgraph.flowchart.summing_function;rotation=45;fontFamily=Times New Roman;" parent="1" vertex="1">
          <mxGeometry x="337.87" y="360.49" width="20" height="20" as="geometry" />
        </mxCell>
        <mxCell id="oQPVEWLI9KSgpzc_tTf6-86" value="" style="shape=internalStorage;whiteSpace=wrap;html=1;backgroundOutline=1;dx=0;dy=41;fillColor=#dae8fc;strokeColor=#000000;fontFamily=Times New Roman;" parent="1" vertex="1">
          <mxGeometry x="283.31" y="348.5" width="46.69" height="80.75" as="geometry" />
        </mxCell>
        <mxCell id="oQPVEWLI9KSgpzc_tTf6-89" style="rounded=0;orthogonalLoop=1;jettySize=auto;html=1;exitX=0;exitY=0.25;exitDx=0;exitDy=0;entryX=1;entryY=0.25;entryDx=0;entryDy=0;endArrow=none;endFill=0;fontFamily=Times New Roman;" parent="1" source="oQPVEWLI9KSgpzc_tTf6-86" target="oQPVEWLI9KSgpzc_tTf6-86" edge="1">
          <mxGeometry relative="1" as="geometry" />
        </mxCell>
        <mxCell id="oQPVEWLI9KSgpzc_tTf6-90" style="rounded=0;orthogonalLoop=1;jettySize=auto;html=1;exitX=0.25;exitY=0;exitDx=0;exitDy=0;entryX=0.25;entryY=1;entryDx=0;entryDy=0;endArrow=none;endFill=0;fontFamily=Times New Roman;" parent="1" source="oQPVEWLI9KSgpzc_tTf6-86" target="oQPVEWLI9KSgpzc_tTf6-86" edge="1">
          <mxGeometry relative="1" as="geometry" />
        </mxCell>
        <mxCell id="oQPVEWLI9KSgpzc_tTf6-91" style="rounded=0;orthogonalLoop=1;jettySize=auto;html=1;exitX=0.5;exitY=0;exitDx=0;exitDy=0;entryX=0.5;entryY=1;entryDx=0;entryDy=0;endArrow=none;endFill=0;fontFamily=Times New Roman;" parent="1" source="oQPVEWLI9KSgpzc_tTf6-86" target="oQPVEWLI9KSgpzc_tTf6-86" edge="1">
          <mxGeometry relative="1" as="geometry" />
        </mxCell>
        <mxCell id="oQPVEWLI9KSgpzc_tTf6-92" value="&lt;div style=&quot;text-align: center;&quot;&gt;&lt;span style=&quot;background-color: initial; font-size: 14px;&quot;&gt;&lt;font&gt;Adaptive&lt;/font&gt;&lt;/span&gt;&lt;/div&gt;&lt;div style=&quot;text-align: center;&quot;&gt;&lt;font&gt;&lt;span style=&quot;font-size: 14px;&quot;&gt;Embed.&lt;/span&gt;&lt;/font&gt;&lt;/div&gt;" style="text;whiteSpace=wrap;html=1;fontFamily=Times New Roman;" parent="1" vertex="1">
          <mxGeometry x="280" y="303.5" width="60" height="40" as="geometry" />
        </mxCell>
        <mxCell id="oQPVEWLI9KSgpzc_tTf6-93" value="&lt;div style=&quot;text-align: center;&quot;&gt;&lt;font&gt;&lt;span style=&quot;font-size: 14px;&quot;&gt;Reshape Time Params.&lt;/span&gt;&lt;/font&gt;&lt;/div&gt;" style="text;whiteSpace=wrap;html=1;fontFamily=Times New Roman;" parent="1" vertex="1">
          <mxGeometry x="365" y="300.25" width="137.99" height="40" as="geometry" />
        </mxCell>
        <mxCell id="oQPVEWLI9KSgpzc_tTf6-95" style="rounded=0;orthogonalLoop=1;jettySize=auto;html=1;exitX=0;exitY=0.75;exitDx=0;exitDy=0;entryX=1;entryY=0.75;entryDx=0;entryDy=0;endArrow=none;endFill=0;fontFamily=Times New Roman;" parent="1" source="oQPVEWLI9KSgpzc_tTf6-86" target="oQPVEWLI9KSgpzc_tTf6-86" edge="1">
          <mxGeometry relative="1" as="geometry" />
        </mxCell>
        <mxCell id="oQPVEWLI9KSgpzc_tTf6-96" style="rounded=0;orthogonalLoop=1;jettySize=auto;html=1;exitX=0.75;exitY=0;exitDx=0;exitDy=0;entryX=0.75;entryY=1;entryDx=0;entryDy=0;endArrow=none;endFill=0;fontFamily=Times New Roman;" parent="1" source="oQPVEWLI9KSgpzc_tTf6-86" target="oQPVEWLI9KSgpzc_tTf6-86" edge="1">
          <mxGeometry relative="1" as="geometry" />
        </mxCell>
        <mxCell id="oQPVEWLI9KSgpzc_tTf6-97" value="" style="shape=internalStorage;whiteSpace=wrap;html=1;backgroundOutline=1;dx=11;dy=34;rotation=90;fillColor=#ffe6cc;strokeColor=#d79b00;fontFamily=Times New Roman;" parent="1" vertex="1">
          <mxGeometry x="422.04" y="271.33" width="22.39" height="135" as="geometry" />
        </mxCell>
        <mxCell id="oQPVEWLI9KSgpzc_tTf6-98" style="rounded=0;orthogonalLoop=1;jettySize=auto;html=1;exitX=0;exitY=0.75;exitDx=0;exitDy=0;entryX=1;entryY=0.75;entryDx=0;entryDy=0;endArrow=none;endFill=0;fontFamily=Times New Roman;fillColor=#ffe6cc;strokeColor=#d79b00;" parent="1" source="oQPVEWLI9KSgpzc_tTf6-97" target="oQPVEWLI9KSgpzc_tTf6-97" edge="1">
          <mxGeometry relative="1" as="geometry" />
        </mxCell>
        <mxCell id="oQPVEWLI9KSgpzc_tTf6-99" style="rounded=0;orthogonalLoop=1;jettySize=auto;html=1;exitX=0;exitY=0.5;exitDx=0;exitDy=0;entryX=1;entryY=0.5;entryDx=0;entryDy=0;endArrow=none;endFill=0;fontFamily=Times New Roman;fillColor=#ffe6cc;strokeColor=#d79b00;" parent="1" source="oQPVEWLI9KSgpzc_tTf6-97" target="oQPVEWLI9KSgpzc_tTf6-97" edge="1">
          <mxGeometry relative="1" as="geometry" />
        </mxCell>
        <mxCell id="oQPVEWLI9KSgpzc_tTf6-101" style="rounded=0;orthogonalLoop=1;jettySize=auto;html=1;exitX=0;exitY=0.25;exitDx=0;exitDy=0;entryX=1;entryY=0.25;entryDx=0;entryDy=0;endArrow=none;endFill=0;fontFamily=Times New Roman;fillColor=#ffe6cc;strokeColor=#d79b00;" parent="1" source="oQPVEWLI9KSgpzc_tTf6-97" target="oQPVEWLI9KSgpzc_tTf6-97" edge="1">
          <mxGeometry relative="1" as="geometry" />
        </mxCell>
        <mxCell id="oQPVEWLI9KSgpzc_tTf6-105" value="" style="shape=internalStorage;whiteSpace=wrap;html=1;backgroundOutline=1;dx=11;dy=34;rotation=90;fillColor=#fff2cc;strokeColor=#d6b656;fontFamily=Times New Roman;" parent="1" vertex="1">
          <mxGeometry x="421.8" y="335" width="22.39" height="135" as="geometry" />
        </mxCell>
        <mxCell id="oQPVEWLI9KSgpzc_tTf6-106" style="rounded=0;orthogonalLoop=1;jettySize=auto;html=1;exitX=0;exitY=0.75;exitDx=0;exitDy=0;entryX=1;entryY=0.75;entryDx=0;entryDy=0;endArrow=none;endFill=0;fontFamily=Times New Roman;fillColor=#fff2cc;strokeColor=#d6b656;" parent="1" source="oQPVEWLI9KSgpzc_tTf6-105" target="oQPVEWLI9KSgpzc_tTf6-105" edge="1">
          <mxGeometry relative="1" as="geometry" />
        </mxCell>
        <mxCell id="oQPVEWLI9KSgpzc_tTf6-107" style="rounded=0;orthogonalLoop=1;jettySize=auto;html=1;exitX=0;exitY=0.5;exitDx=0;exitDy=0;entryX=1;entryY=0.5;entryDx=0;entryDy=0;endArrow=none;endFill=0;fontFamily=Times New Roman;fillColor=#fff2cc;strokeColor=#d6b656;" parent="1" source="oQPVEWLI9KSgpzc_tTf6-105" target="oQPVEWLI9KSgpzc_tTf6-105" edge="1">
          <mxGeometry relative="1" as="geometry" />
        </mxCell>
        <mxCell id="oQPVEWLI9KSgpzc_tTf6-108" style="rounded=0;orthogonalLoop=1;jettySize=auto;html=1;exitX=0;exitY=0.25;exitDx=0;exitDy=0;entryX=1;entryY=0.25;entryDx=0;entryDy=0;endArrow=none;endFill=0;fontFamily=Times New Roman;fillColor=#fff2cc;strokeColor=#d6b656;" parent="1" source="oQPVEWLI9KSgpzc_tTf6-105" target="oQPVEWLI9KSgpzc_tTf6-105" edge="1">
          <mxGeometry relative="1" as="geometry" />
        </mxCell>
        <mxCell id="oQPVEWLI9KSgpzc_tTf6-109" value="&lt;div style=&quot;text-align: center;&quot;&gt;&lt;font&gt;&lt;span style=&quot;font-size: 14px; background-color: transparent; color: light-dark(rgb(0, 0, 0), rgb(255, 255, 255));&quot;&gt;Reshape&lt;/span&gt;&lt;span style=&quot;font-size: 14px;&quot;&gt;&amp;nbsp;Space Params.&lt;/span&gt;&lt;/font&gt;&lt;/div&gt;" style="text;whiteSpace=wrap;html=1;fontFamily=Times New Roman;" parent="1" vertex="1">
          <mxGeometry x="365" y="408.5" width="142.01" height="40" as="geometry" />
        </mxCell>
        <mxCell id="oQPVEWLI9KSgpzc_tTf6-112" value="&lt;font&gt;&lt;span style=&quot;font-size: 14px;&quot;&gt;Reshape&lt;/span&gt;&lt;/font&gt;" style="rounded=1;whiteSpace=wrap;html=1;fillColor=#fad9d5;strokeColor=#ae4132;opacity=70;fontFamily=Times New Roman;" parent="1" vertex="1">
          <mxGeometry x="366" y="358" width="63.14" height="26.49" as="geometry" />
        </mxCell>
        <mxCell id="oQPVEWLI9KSgpzc_tTf6-114" value="&lt;font&gt;&lt;span style=&quot;font-size: 14px;&quot;&gt;Scale&lt;/span&gt;&lt;/font&gt;" style="rounded=1;whiteSpace=wrap;html=1;fillColor=#fad9d5;strokeColor=#ae4132;opacity=70;fontFamily=Times New Roman;" parent="1" vertex="1">
          <mxGeometry x="438.87" y="358" width="63.14" height="26.49" as="geometry" />
        </mxCell>
        <mxCell id="T_FOPEBpzpQEU7bBr1gE-1" value="STGNN" style="rounded=0;whiteSpace=wrap;html=1;fillColor=#f5f5f5;strokeColor=#666666;strokeWidth=1;fontColor=#333333;fontFamily=Times New Roman;" parent="1" vertex="1">
          <mxGeometry x="50" y="205.61999999999998" width="60" height="30" as="geometry" />
        </mxCell>
        <mxCell id="T_FOPEBpzpQEU7bBr1gE-2" value="MLP" style="rounded=0;whiteSpace=wrap;html=1;fillColor=#F5F5F5;fontColor=#333333;strokeColor=#666666;strokeWidth=1;fontFamily=Times New Roman;" parent="1" vertex="1">
          <mxGeometry x="50" y="167.12999999999997" width="30" height="30" as="geometry" />
        </mxCell>
        <mxCell id="T_FOPEBpzpQEU7bBr1gE-12" value="&lt;font style=&quot;font-size: 12px;&quot;&gt;Enhance&lt;/font&gt;" style="text;whiteSpace=wrap;html=1;direction=south;rotation=-90;fontFamily=Times New Roman;" parent="1" vertex="1">
          <mxGeometry x="109.995" y="152.125" width="22.87" height="60" as="geometry" />
        </mxCell>
        <mxCell id="T_FOPEBpzpQEU7bBr1gE-16" value="Local Details" style="text;whiteSpace=wrap;fontFamily=Times New Roman;" parent="1" vertex="1">
          <mxGeometry x="156.56" y="340.25" width="48.87" height="8" as="geometry" />
        </mxCell>
        <mxCell id="T_FOPEBpzpQEU7bBr1gE-14" value="Global&#xa;Trends " style="text;fontFamily=Times New Roman;" parent="1" vertex="1">
          <mxGeometry x="80" y="340.25" width="40" height="12" as="geometry" />
        </mxCell>
        <mxCell id="T_FOPEBpzpQEU7bBr1gE-24" style="rounded=0;orthogonalLoop=1;jettySize=auto;html=1;exitX=1;exitY=1;exitDx=0;exitDy=0;entryX=0;entryY=1;entryDx=0;entryDy=0;endArrow=none;endFill=0;dashed=1;fillColor=#f5f5f5;strokeColor=#666666;fontFamily=Times New Roman;" parent="1" source="oQPVEWLI9KSgpzc_tTf6-13" target="oQPVEWLI9KSgpzc_tTf6-24" edge="1">
          <mxGeometry relative="1" as="geometry">
            <mxPoint x="257" y="184" as="sourcePoint" />
            <mxPoint x="340" y="50" as="targetPoint" />
          </mxGeometry>
        </mxCell>
        <mxCell id="T_FOPEBpzpQEU7bBr1gE-25" value="&lt;div style=&quot;text-align: left;&quot;&gt;&lt;div&gt;Unitized Parameter&amp;nbsp;&lt;span style=&quot;background-color: initial; text-align: center;&quot;&gt;$$W$$&lt;/span&gt;&lt;/div&gt;&lt;/div&gt;" style="text;strokeColor=none;align=center;fillColor=none;html=1;verticalAlign=middle;whiteSpace=wrap;rounded=0;fontFamily=Times New Roman;" parent="1" vertex="1">
          <mxGeometry x="288.17" y="50.2" width="154.63" height="40" as="geometry" />
        </mxCell>
        <mxCell id="T_FOPEBpzpQEU7bBr1gE-27" value="&lt;font&gt;$$\Delta W$$&lt;/font&gt;&lt;div&gt;&lt;div&gt;&lt;font&gt;&lt;br&gt;&lt;/font&gt;&lt;/div&gt;&lt;/div&gt;" style="text;strokeColor=none;align=center;fillColor=none;html=1;verticalAlign=middle;whiteSpace=wrap;rounded=0;fontFamily=Times New Roman;" parent="1" vertex="1">
          <mxGeometry x="436.8699999999999" y="119.25" width="34.11" height="45" as="geometry" />
        </mxCell>
        <mxCell id="T_FOPEBpzpQEU7bBr1gE-35" style="edgeStyle=orthogonalEdgeStyle;rounded=0;orthogonalLoop=1;jettySize=auto;html=1;exitX=0;exitY=0.5;exitDx=0;exitDy=0;entryX=0.5;entryY=1;entryDx=0;entryDy=0;fontFamily=Times New Roman;" parent="1" source="T_FOPEBpzpQEU7bBr1gE-32" target="T_FOPEBpzpQEU7bBr1gE-40" edge="1">
          <mxGeometry relative="1" as="geometry">
            <mxPoint x="602" y="255.6199999999999" as="sourcePoint" />
            <mxPoint x="517.0899999999999" y="125.00000000000023" as="targetPoint" />
          </mxGeometry>
        </mxCell>
        <mxCell id="T_FOPEBpzpQEU7bBr1gE-32" value="" style="rounded=0;whiteSpace=wrap;html=1;fillColor=#E1D5E7;strokeColor=#9673a6;opacity=70;fontFamily=Times New Roman;" parent="1" vertex="1">
          <mxGeometry x="585" y="232.82" width="80" height="40" as="geometry" />
        </mxCell>
        <mxCell id="T_FOPEBpzpQEU7bBr1gE-33" value="&lt;br style=&quot;font-size: 12px;&quot;&gt;&lt;span style=&quot;font-size: 12px; color: rgb(53, 53, 53); text-align: left; background-color: rgb(149, 236, 105);&quot;&gt;$$ASTUC \, \mathcal{G}_s^{(k)}$$&lt;/span&gt;" style="text;strokeColor=none;align=center;fillColor=none;html=1;verticalAlign=middle;whiteSpace=wrap;rounded=0;fontSize=11;fontFamily=Times New Roman;" parent="1" vertex="1">
          <mxGeometry x="600" y="232.22" width="50" height="24.78" as="geometry" />
        </mxCell>
        <mxCell id="T_FOPEBpzpQEU7bBr1gE-37" value="&lt;font&gt;&amp;nbsp;&lt;/font&gt;" style="text;strokeColor=none;align=center;fillColor=none;html=1;verticalAlign=middle;whiteSpace=wrap;rounded=0;fontFamily=Times New Roman;" parent="1" vertex="1">
          <mxGeometry x="618" y="191.45" width="14" height="24.31" as="geometry" />
        </mxCell>
        <mxCell id="T_FOPEBpzpQEU7bBr1gE-41" style="edgeStyle=orthogonalEdgeStyle;rounded=0;orthogonalLoop=1;jettySize=auto;html=1;exitX=0.5;exitY=0;exitDx=0;exitDy=0;entryX=0.5;entryY=1;entryDx=0;entryDy=0;fontFamily=Times New Roman;" parent="1" source="T_FOPEBpzpQEU7bBr1gE-40" target="oQPVEWLI9KSgpzc_tTf6-60" edge="1">
          <mxGeometry relative="1" as="geometry" />
        </mxCell>
        <mxCell id="T_FOPEBpzpQEU7bBr1gE-40" value="&lt;div&gt;&lt;span style=&quot;font-size: 14px; background-color: initial;&quot;&gt;Concat(x,y,z)&lt;/span&gt;&lt;/div&gt;" style="rounded=1;whiteSpace=wrap;html=1;fillColor=#f8cecc;strokeColor=#b85450;opacity=70;fontFamily=Times New Roman;" parent="1" vertex="1">
          <mxGeometry x="446.87" y="179.76" width="96" height="36" as="geometry" />
        </mxCell>
        <mxCell id="T_FOPEBpzpQEU7bBr1gE-42" value="" style="shape=parallelogram;perimeter=parallelogramPerimeter;whiteSpace=wrap;html=1;fixedSize=1;fillColor=#e1d5e7;strokeColor=#9673a6;shadow=1;fontFamily=Times New Roman;" parent="1" vertex="1">
          <mxGeometry x="542" y="308.25" width="118" height="29.25" as="geometry" />
        </mxCell>
        <mxCell id="T_FOPEBpzpQEU7bBr1gE-51" style="rounded=0;orthogonalLoop=1;jettySize=auto;html=1;exitX=1;exitY=1;exitDx=0;exitDy=0;entryX=0;entryY=1;entryDx=0;entryDy=0;dashed=1;endArrow=none;endFill=0;strokeWidth=0.5;fillColor=#cce5ff;strokeColor=#66B2FF;shadow=1;fontFamily=Times New Roman;" parent="1" source="T_FOPEBpzpQEU7bBr1gE-44" target="T_FOPEBpzpQEU7bBr1gE-47" edge="1">
          <mxGeometry relative="1" as="geometry" />
        </mxCell>
        <mxCell id="T_FOPEBpzpQEU7bBr1gE-44" value="" style="ellipse;whiteSpace=wrap;html=1;fillColor=#F8A38E;strokeColor=#EA6B66;opacity=50;aspect=fixed;shadow=1;fontFamily=Times New Roman;" parent="1" vertex="1">
          <mxGeometry x="560" y="322.47" width="20" height="7.13" as="geometry" />
        </mxCell>
        <mxCell id="T_FOPEBpzpQEU7bBr1gE-45" value="" style="ellipse;whiteSpace=wrap;html=1;fillColor=#f8cecc;strokeColor=#EA6B66;aspect=fixed;shadow=1;fontFamily=Times New Roman;" parent="1" vertex="1">
          <mxGeometry x="589.93" y="311.73" width="20" height="7.13" as="geometry" />
        </mxCell>
        <mxCell id="T_FOPEBpzpQEU7bBr1gE-47" value="" style="ellipse;whiteSpace=wrap;html=1;fillColor=#ffcccc;strokeColor=#EA6B66;opacity=70;aspect=fixed;shadow=1;fontFamily=Times New Roman;" parent="1" vertex="1">
          <mxGeometry x="620" y="321.67" width="22.08" height="7.87" as="geometry" />
        </mxCell>
        <mxCell id="T_FOPEBpzpQEU7bBr1gE-52" style="rounded=0;orthogonalLoop=1;jettySize=auto;html=1;exitX=1;exitY=0;exitDx=0;exitDy=0;entryX=1;entryY=0.5;entryDx=0;entryDy=0;dashed=1;endArrow=none;endFill=0;strokeWidth=0.5;fillColor=#cce5ff;strokeColor=#66B2FF;shadow=1;fontFamily=Times New Roman;" parent="1" source="T_FOPEBpzpQEU7bBr1gE-47" target="T_FOPEBpzpQEU7bBr1gE-45" edge="1">
          <mxGeometry relative="1" as="geometry">
            <mxPoint x="587" y="338.35" as="sourcePoint" />
            <mxPoint x="633" y="338.35" as="targetPoint" />
          </mxGeometry>
        </mxCell>
        <mxCell id="T_FOPEBpzpQEU7bBr1gE-53" style="rounded=0;orthogonalLoop=1;jettySize=auto;html=1;exitX=0;exitY=0;exitDx=0;exitDy=0;entryX=0;entryY=0.5;entryDx=0;entryDy=0;dashed=1;endArrow=none;endFill=0;strokeWidth=0.5;fillColor=#cce5ff;strokeColor=#66B2FF;shadow=1;fontFamily=Times New Roman;" parent="1" source="T_FOPEBpzpQEU7bBr1gE-44" target="T_FOPEBpzpQEU7bBr1gE-45" edge="1">
          <mxGeometry relative="1" as="geometry">
            <mxPoint x="636" y="274.6500000000001" as="sourcePoint" />
            <mxPoint x="620" y="325.35" as="targetPoint" />
          </mxGeometry>
        </mxCell>
        <mxCell id="T_FOPEBpzpQEU7bBr1gE-54" value="" style="shape=parallelogram;perimeter=parallelogramPerimeter;whiteSpace=wrap;html=1;fixedSize=1;fillColor=#e1d5e7;strokeColor=#9673a6;shadow=1;fontFamily=Times New Roman;" parent="1" vertex="1">
          <mxGeometry x="542" y="408.83" width="118" height="29.25" as="geometry" />
        </mxCell>
        <mxCell id="T_FOPEBpzpQEU7bBr1gE-55" style="rounded=0;orthogonalLoop=1;jettySize=auto;html=1;exitX=1;exitY=1;exitDx=0;exitDy=0;entryX=0;entryY=1;entryDx=0;entryDy=0;dashed=1;endArrow=none;endFill=0;strokeWidth=0.5;fillColor=#cce5ff;strokeColor=#66B2FF;shadow=1;fontFamily=Times New Roman;" parent="1" source="T_FOPEBpzpQEU7bBr1gE-56" target="T_FOPEBpzpQEU7bBr1gE-58" edge="1">
          <mxGeometry relative="1" as="geometry" />
        </mxCell>
        <mxCell id="T_FOPEBpzpQEU7bBr1gE-56" value="" style="ellipse;whiteSpace=wrap;html=1;fillColor=#FF6666;strokeColor=#EA6B66;opacity=70;aspect=fixed;shadow=1;fontFamily=Times New Roman;" parent="1" vertex="1">
          <mxGeometry x="555.93" y="423.05" width="20" height="7.13" as="geometry" />
        </mxCell>
        <mxCell id="T_FOPEBpzpQEU7bBr1gE-57" value="" style="ellipse;whiteSpace=wrap;html=1;fillColor=#f8cecc;strokeColor=#EA6B66;aspect=fixed;opacity=80;shadow=1;fontFamily=Times New Roman;" parent="1" vertex="1">
          <mxGeometry x="585.8599999999999" y="412.31" width="20" height="7.13" as="geometry" />
        </mxCell>
        <mxCell id="T_FOPEBpzpQEU7bBr1gE-58" value="" style="ellipse;whiteSpace=wrap;html=1;fillColor=#ffcccc;strokeColor=#EA6B66;opacity=90;aspect=fixed;shadow=1;fontFamily=Times New Roman;" parent="1" vertex="1">
          <mxGeometry x="615.93" y="422.25" width="22.08" height="7.87" as="geometry" />
        </mxCell>
        <mxCell id="T_FOPEBpzpQEU7bBr1gE-59" style="rounded=0;orthogonalLoop=1;jettySize=auto;html=1;exitX=1;exitY=0;exitDx=0;exitDy=0;entryX=1;entryY=0.5;entryDx=0;entryDy=0;dashed=1;endArrow=none;endFill=0;strokeWidth=0.5;fillColor=#cce5ff;strokeColor=#66B2FF;shadow=1;fontFamily=Times New Roman;" parent="1" source="T_FOPEBpzpQEU7bBr1gE-58" target="T_FOPEBpzpQEU7bBr1gE-57" edge="1">
          <mxGeometry relative="1" as="geometry">
            <mxPoint x="582.93" y="438.93" as="sourcePoint" />
            <mxPoint x="628.93" y="438.93" as="targetPoint" />
          </mxGeometry>
        </mxCell>
        <mxCell id="T_FOPEBpzpQEU7bBr1gE-60" style="rounded=0;orthogonalLoop=1;jettySize=auto;html=1;exitX=0;exitY=0;exitDx=0;exitDy=0;entryX=0;entryY=0.5;entryDx=0;entryDy=0;dashed=1;endArrow=none;endFill=0;strokeWidth=0.5;fillColor=#cce5ff;strokeColor=#66B2FF;shadow=1;fontFamily=Times New Roman;" parent="1" source="T_FOPEBpzpQEU7bBr1gE-56" target="T_FOPEBpzpQEU7bBr1gE-57" edge="1">
          <mxGeometry relative="1" as="geometry">
            <mxPoint x="644.93" y="432.93" as="sourcePoint" />
            <mxPoint x="615.93" y="425.93" as="targetPoint" />
          </mxGeometry>
        </mxCell>
        <mxCell id="T_FOPEBpzpQEU7bBr1gE-61" style="rounded=0;orthogonalLoop=1;jettySize=auto;html=1;shadow=1;fontFamily=Times New Roman;" parent="1" edge="1">
          <mxGeometry relative="1" as="geometry">
            <mxPoint x="540" y="438.5" as="sourcePoint" />
            <mxPoint x="540" y="312.5" as="targetPoint" />
          </mxGeometry>
        </mxCell>
        <mxCell id="T_FOPEBpzpQEU7bBr1gE-64" value="Layer" style="text;whiteSpace=wrap;html=1;direction=south;rotation=-90;fontFamily=Times New Roman;" parent="1" vertex="1">
          <mxGeometry x="526.6" y="309.36" width="22.87" height="47.09" as="geometry" />
        </mxCell>
        <mxCell id="T_FOPEBpzpQEU7bBr1gE-67" value="" style="shape=parallelogram;perimeter=parallelogramPerimeter;whiteSpace=wrap;html=1;fixedSize=1;fillColor=#e1d5e7;strokeColor=#9673a6;shadow=1;fontFamily=Times New Roman;" parent="1" vertex="1">
          <mxGeometry x="540.93" y="360.49" width="118" height="29.25" as="geometry" />
        </mxCell>
        <mxCell id="T_FOPEBpzpQEU7bBr1gE-68" style="rounded=0;orthogonalLoop=1;jettySize=auto;html=1;exitX=1;exitY=1;exitDx=0;exitDy=0;entryX=0;entryY=1;entryDx=0;entryDy=0;dashed=1;endArrow=none;endFill=0;strokeWidth=0.5;fillColor=#cce5ff;strokeColor=#66B2FF;shadow=1;fontFamily=Times New Roman;" parent="1" source="T_FOPEBpzpQEU7bBr1gE-69" target="T_FOPEBpzpQEU7bBr1gE-71" edge="1">
          <mxGeometry relative="1" as="geometry" />
        </mxCell>
        <mxCell id="T_FOPEBpzpQEU7bBr1gE-69" value="" style="ellipse;whiteSpace=wrap;html=1;fillColor=#f8cecc;strokeColor=#EA6B66;opacity=60;aspect=fixed;shadow=1;fontFamily=Times New Roman;" parent="1" vertex="1">
          <mxGeometry x="558.93" y="373.71000000000004" width="20" height="7.13" as="geometry" />
        </mxCell>
        <mxCell id="T_FOPEBpzpQEU7bBr1gE-70" value="" style="ellipse;whiteSpace=wrap;html=1;fillColor=#f8cecc;strokeColor=#EA6B66;aspect=fixed;opacity=95;shadow=1;fontFamily=Times New Roman;" parent="1" vertex="1">
          <mxGeometry x="588.8599999999999" y="363.97" width="20" height="7.13" as="geometry" />
        </mxCell>
        <mxCell id="T_FOPEBpzpQEU7bBr1gE-71" value="" style="ellipse;whiteSpace=wrap;html=1;fillColor=#FF9090;strokeColor=#EA6B66;opacity=80;aspect=fixed;shadow=1;fontFamily=Times New Roman;" parent="1" vertex="1">
          <mxGeometry x="618.93" y="373.91" width="22.08" height="7.87" as="geometry" />
        </mxCell>
        <mxCell id="T_FOPEBpzpQEU7bBr1gE-72" style="rounded=0;orthogonalLoop=1;jettySize=auto;html=1;exitX=1;exitY=0;exitDx=0;exitDy=0;entryX=1;entryY=0.5;entryDx=0;entryDy=0;dashed=1;endArrow=none;endFill=0;strokeWidth=0.5;fillColor=#cce5ff;strokeColor=#66B2FF;shadow=1;fontFamily=Times New Roman;" parent="1" source="T_FOPEBpzpQEU7bBr1gE-71" target="T_FOPEBpzpQEU7bBr1gE-70" edge="1">
          <mxGeometry relative="1" as="geometry">
            <mxPoint x="585.93" y="390.59000000000003" as="sourcePoint" />
            <mxPoint x="631.93" y="390.59000000000003" as="targetPoint" />
          </mxGeometry>
        </mxCell>
        <mxCell id="T_FOPEBpzpQEU7bBr1gE-73" style="rounded=0;orthogonalLoop=1;jettySize=auto;html=1;exitX=0;exitY=0;exitDx=0;exitDy=0;entryX=0;entryY=0.5;entryDx=0;entryDy=0;dashed=1;endArrow=none;endFill=0;strokeWidth=0.5;fillColor=#cce5ff;strokeColor=#66B2FF;shadow=1;fontFamily=Times New Roman;" parent="1" source="T_FOPEBpzpQEU7bBr1gE-69" target="T_FOPEBpzpQEU7bBr1gE-70" edge="1">
          <mxGeometry relative="1" as="geometry">
            <mxPoint x="647.93" y="384.59000000000003" as="sourcePoint" />
            <mxPoint x="618.93" y="377.59000000000003" as="targetPoint" />
          </mxGeometry>
        </mxCell>
        <mxCell id="T_FOPEBpzpQEU7bBr1gE-74" style="edgeStyle=orthogonalEdgeStyle;rounded=0;orthogonalLoop=1;jettySize=auto;html=1;exitX=0.5;exitY=0;exitDx=0;exitDy=0;entryX=0.5;entryY=1;entryDx=0;entryDy=0;curved=1;strokeWidth=0.5;strokeColor=#FF6666;shadow=1;fontFamily=Times New Roman;" parent="1" source="T_FOPEBpzpQEU7bBr1gE-56" target="T_FOPEBpzpQEU7bBr1gE-70" edge="1">
          <mxGeometry relative="1" as="geometry" />
        </mxCell>
        <mxCell id="T_FOPEBpzpQEU7bBr1gE-75" style="edgeStyle=orthogonalEdgeStyle;rounded=0;orthogonalLoop=1;jettySize=auto;html=1;exitX=0.5;exitY=0;exitDx=0;exitDy=0;entryX=0.5;entryY=1;entryDx=0;entryDy=0;curved=1;strokeWidth=0.5;strokeColor=#FF6666;shadow=1;fontFamily=Times New Roman;" parent="1" source="T_FOPEBpzpQEU7bBr1gE-58" target="T_FOPEBpzpQEU7bBr1gE-70" edge="1">
          <mxGeometry relative="1" as="geometry">
            <mxPoint x="576" y="433.5" as="sourcePoint" />
            <mxPoint x="602" y="380.5" as="targetPoint" />
          </mxGeometry>
        </mxCell>
        <mxCell id="T_FOPEBpzpQEU7bBr1gE-80" value="&lt;div&gt;&lt;font style=&quot;font-size: 10px;&quot;&gt;Spatial dependency&lt;/font&gt;&lt;/div&gt;&lt;font style=&quot;font-size: 10px;&quot;&gt;Temporal dependency&lt;/font&gt;&lt;div&gt;&lt;font style=&quot;font-size: 10px;&quot;&gt;&lt;span style=&quot;background-color: initial;&quot;&gt;Spatio-temporal correlation&lt;/span&gt;&lt;/font&gt;&lt;/div&gt;" style="text;whiteSpace=wrap;html=1;direction=south;rotation=-90;fontFamily=Times New Roman;" parent="1" vertex="1">
          <mxGeometry x="630.82" y="348.5" width="126.87" height="60" as="geometry" />
        </mxCell>
        <mxCell id="T_FOPEBpzpQEU7bBr1gE-87" style="rounded=1;orthogonalLoop=1;jettySize=auto;html=1;fillColor=#ffff88;strokeColor=#FFD966;strokeWidth=1;endArrow=openThin;endFill=0;shadow=1;jumpSize=3;startSize=3;targetPerimeterSpacing=-1;curved=0;fontFamily=Times New Roman;" parent="1" edge="1">
          <mxGeometry relative="1" as="geometry">
            <mxPoint x="568.84" y="423.5" as="sourcePoint" />
            <mxPoint x="568.84" y="381.5" as="targetPoint" />
          </mxGeometry>
        </mxCell>
        <mxCell id="T_FOPEBpzpQEU7bBr1gE-89" style="rounded=1;orthogonalLoop=1;jettySize=auto;html=1;fillColor=#ffff88;strokeColor=#FFD966;strokeWidth=1;endArrow=openThin;endFill=0;shadow=1;jumpSize=3;startSize=3;targetPerimeterSpacing=-1;curved=0;fontFamily=Times New Roman;" parent="1" edge="1">
          <mxGeometry relative="1" as="geometry">
            <mxPoint x="598.77" y="413.11" as="sourcePoint" />
            <mxPoint x="598.77" y="371.11" as="targetPoint" />
          </mxGeometry>
        </mxCell>
        <mxCell id="T_FOPEBpzpQEU7bBr1gE-90" style="rounded=1;orthogonalLoop=1;jettySize=auto;html=1;fillColor=#ffff88;strokeColor=#FFD966;strokeWidth=1;endArrow=openThin;endFill=0;shadow=1;jumpSize=3;startSize=3;targetPerimeterSpacing=-1;curved=0;fontFamily=Times New Roman;" parent="1" edge="1">
          <mxGeometry relative="1" as="geometry">
            <mxPoint x="630.82" y="423.79" as="sourcePoint" />
            <mxPoint x="630.82" y="381.79" as="targetPoint" />
          </mxGeometry>
        </mxCell>
        <mxCell id="T_FOPEBpzpQEU7bBr1gE-91" style="rounded=1;orthogonalLoop=1;jettySize=auto;html=1;fillColor=#ffff88;strokeColor=#FFD966;strokeWidth=1;endArrow=openThin;endFill=0;shadow=1;jumpSize=3;startSize=3;targetPerimeterSpacing=-1;curved=0;fontFamily=Times New Roman;" parent="1" edge="1">
          <mxGeometry relative="1" as="geometry">
            <mxPoint x="630.9200000000001" y="373.09000000000003" as="sourcePoint" />
            <mxPoint x="630.9200000000001" y="331.09000000000003" as="targetPoint" />
          </mxGeometry>
        </mxCell>
        <mxCell id="T_FOPEBpzpQEU7bBr1gE-92" style="rounded=1;orthogonalLoop=1;jettySize=auto;html=1;fillColor=#ffff88;strokeColor=#FFD966;strokeWidth=1;endArrow=openThin;endFill=0;shadow=1;jumpSize=3;startSize=3;targetPerimeterSpacing=-1;curved=0;fontFamily=Times New Roman;" parent="1" edge="1">
          <mxGeometry relative="1" as="geometry">
            <mxPoint x="598.7400000000001" y="363.67" as="sourcePoint" />
            <mxPoint x="599" y="320" as="targetPoint" />
          </mxGeometry>
        </mxCell>
        <mxCell id="T_FOPEBpzpQEU7bBr1gE-93" style="rounded=1;orthogonalLoop=1;jettySize=auto;html=1;fillColor=#ffff88;strokeColor=#FFD966;strokeWidth=1;endArrow=openThin;endFill=0;shadow=1;jumpSize=3;startSize=3;targetPerimeterSpacing=-1;curved=0;fontFamily=Times New Roman;" parent="1" edge="1">
          <mxGeometry relative="1" as="geometry">
            <mxPoint x="568.8100000000001" y="372.91" as="sourcePoint" />
            <mxPoint x="568.8100000000001" y="330.91" as="targetPoint" />
          </mxGeometry>
        </mxCell>
        <mxCell id="T_FOPEBpzpQEU7bBr1gE-94" style="rounded=1;orthogonalLoop=1;jettySize=auto;html=1;fillColor=#ffff88;strokeColor=#FFD966;strokeWidth=1;endArrow=openThin;endFill=0;shadow=1;jumpSize=3;startSize=3;targetPerimeterSpacing=-1;curved=0;fontFamily=Times New Roman;" parent="1" edge="1">
          <mxGeometry relative="1" as="geometry">
            <mxPoint x="700" y="440" as="sourcePoint" />
            <mxPoint x="700.0000000000001" y="312.25" as="targetPoint" />
          </mxGeometry>
        </mxCell>
        <mxCell id="T_FOPEBpzpQEU7bBr1gE-95" style="edgeStyle=orthogonalEdgeStyle;rounded=0;orthogonalLoop=1;jettySize=auto;html=1;exitX=0.5;exitY=0;exitDx=0;exitDy=0;entryX=0.5;entryY=1;entryDx=0;entryDy=0;curved=1;strokeWidth=0.5;strokeColor=#FF6666;shadow=1;fontFamily=Times New Roman;" parent="1" source="T_FOPEBpzpQEU7bBr1gE-56" target="T_FOPEBpzpQEU7bBr1gE-71" edge="1">
          <mxGeometry relative="1" as="geometry">
            <mxPoint x="576" y="433" as="sourcePoint" />
            <mxPoint x="609" y="381" as="targetPoint" />
          </mxGeometry>
        </mxCell>
        <mxCell id="T_FOPEBpzpQEU7bBr1gE-96" style="edgeStyle=orthogonalEdgeStyle;rounded=0;orthogonalLoop=1;jettySize=auto;html=1;exitX=0.5;exitY=0;exitDx=0;exitDy=0;entryX=0.5;entryY=1;entryDx=0;entryDy=0;curved=1;strokeWidth=0.5;strokeColor=#66B2FF;shadow=1;fontFamily=Times New Roman;" parent="1" source="T_FOPEBpzpQEU7bBr1gE-71" target="T_FOPEBpzpQEU7bBr1gE-45" edge="1">
          <mxGeometry relative="1" as="geometry">
            <mxPoint x="576" y="433" as="sourcePoint" />
            <mxPoint x="640" y="392" as="targetPoint" />
          </mxGeometry>
        </mxCell>
        <mxCell id="T_FOPEBpzpQEU7bBr1gE-97" style="edgeStyle=orthogonalEdgeStyle;rounded=0;orthogonalLoop=1;jettySize=auto;html=1;exitX=0.5;exitY=0;exitDx=0;exitDy=0;entryX=0.5;entryY=1;entryDx=0;entryDy=0;curved=1;strokeWidth=0.5;strokeColor=#66B2FF;shadow=1;fontFamily=Times New Roman;" parent="1" source="T_FOPEBpzpQEU7bBr1gE-70" target="T_FOPEBpzpQEU7bBr1gE-44" edge="1">
          <mxGeometry relative="1" as="geometry">
            <mxPoint x="640" y="384" as="sourcePoint" />
            <mxPoint x="610" y="329" as="targetPoint" />
          </mxGeometry>
        </mxCell>
        <mxCell id="T_FOPEBpzpQEU7bBr1gE-99" style="rounded=1;orthogonalLoop=1;jettySize=auto;html=1;fillColor=#ffff88;strokeColor=#66B2FF;strokeWidth=1;endArrow=openThin;endFill=0;shadow=1;jumpSize=3;startSize=3;targetPerimeterSpacing=-1;curved=0;fontFamily=Times New Roman;" parent="1" edge="1">
          <mxGeometry relative="1" as="geometry">
            <mxPoint x="686" y="440.15" as="sourcePoint" />
            <mxPoint x="686.00000000001" y="312.4" as="targetPoint" />
          </mxGeometry>
        </mxCell>
        <mxCell id="T_FOPEBpzpQEU7bBr1gE-100" style="rounded=1;orthogonalLoop=1;jettySize=auto;html=1;fillColor=#ffff88;strokeColor=#FF6666;strokeWidth=1;endArrow=openThin;endFill=0;shadow=1;jumpSize=3;startSize=3;targetPerimeterSpacing=-1;curved=0;fontFamily=Times New Roman;" parent="1" edge="1">
          <mxGeometry relative="1" as="geometry">
            <mxPoint x="672" y="439.99999999999994" as="sourcePoint" />
            <mxPoint x="672" y="312.24999999999994" as="targetPoint" />
          </mxGeometry>
        </mxCell>
        <mxCell id="T_FOPEBpzpQEU7bBr1gE-103" value="&lt;br style=&quot;forced-color-adjust: none; color: rgb(0, 0, 0); font-style: normal; font-variant-ligatures: normal; font-variant-caps: normal; font-weight: 400; letter-spacing: normal; orphans: 2; text-align: center; text-indent: 0px; text-transform: none; widows: 2; word-spacing: 0px; -webkit-text-stroke-width: 0px; white-space: normal; background-color: rgb(251, 251, 251); text-decoration-thickness: initial; text-decoration-style: initial; text-decoration-color: initial; font-size: 12px;&quot;&gt;&lt;span style=&quot;forced-color-adjust: none; font-style: normal; font-variant-ligatures: normal; font-variant-caps: normal; font-weight: 400; letter-spacing: normal; orphans: 2; text-indent: 0px; text-transform: none; widows: 2; word-spacing: 0px; -webkit-text-stroke-width: 0px; white-space: normal; text-decoration-thickness: initial; text-decoration-style: initial; text-decoration-color: initial; font-size: 12px; color: rgb(53, 53, 53); text-align: left; background-color: rgb(149, 236, 105);&quot;&gt;$$\mathcal{G}_t$$&lt;/span&gt;" style="text;whiteSpace=wrap;html=1;fontFamily=Times New Roman;" parent="1" vertex="1">
          <mxGeometry x="636" y="327.25" width="27" height="19.6" as="geometry" />
        </mxCell>
        <mxCell id="T_FOPEBpzpQEU7bBr1gE-104" value="&lt;br style=&quot;forced-color-adjust: none; color: rgb(0, 0, 0); font-style: normal; font-variant-ligatures: normal; font-variant-caps: normal; font-weight: 400; letter-spacing: normal; orphans: 2; text-align: center; text-indent: 0px; text-transform: none; widows: 2; word-spacing: 0px; -webkit-text-stroke-width: 0px; white-space: normal; background-color: rgb(251, 251, 251); text-decoration-thickness: initial; text-decoration-style: initial; text-decoration-color: initial; font-size: 12px;&quot;&gt;&lt;span style=&quot;forced-color-adjust: none; font-style: normal; font-variant-ligatures: normal; font-variant-caps: normal; font-weight: 400; letter-spacing: normal; orphans: 2; text-indent: 0px; text-transform: none; widows: 2; word-spacing: 0px; -webkit-text-stroke-width: 0px; white-space: normal; text-decoration-thickness: initial; text-decoration-style: initial; text-decoration-color: initial; font-size: 12px; color: rgb(53, 53, 53); text-align: left; background-color: rgb(149, 236, 105);&quot;&gt;$$\mathcal{G}_s$$&lt;/span&gt;" style="text;whiteSpace=wrap;html=1;fontFamily=Times New Roman;" parent="1" vertex="1">
          <mxGeometry x="636" y="374.90999999999997" width="27" height="19.6" as="geometry" />
        </mxCell>
        <mxCell id="T_FOPEBpzpQEU7bBr1gE-108" value="&lt;br style=&quot;forced-color-adjust: none; color: rgb(0, 0, 0); font-style: normal; font-variant-ligatures: normal; font-variant-caps: normal; font-weight: 400; letter-spacing: normal; orphans: 2; text-align: center; text-indent: 0px; text-transform: none; widows: 2; word-spacing: 0px; -webkit-text-stroke-width: 0px; white-space: normal; background-color: rgb(251, 251, 251); text-decoration-thickness: initial; text-decoration-style: initial; text-decoration-color: initial; font-size: 12px;&quot;&gt;&lt;span style=&quot;forced-color-adjust: none; font-style: normal; font-variant-ligatures: normal; font-variant-caps: normal; font-weight: 400; letter-spacing: normal; orphans: 2; text-indent: 0px; text-transform: none; widows: 2; word-spacing: 0px; -webkit-text-stroke-width: 0px; white-space: normal; text-decoration-thickness: initial; text-decoration-style: initial; text-decoration-color: initial; font-size: 12px; color: rgb(53, 53, 53); text-align: left; background-color: rgb(149, 236, 105);&quot;&gt;$$\mathcal{G}_s$$&lt;/span&gt;" style="text;whiteSpace=wrap;html=1;fontFamily=Times New Roman;" parent="1" vertex="1">
          <mxGeometry x="636" y="274.65" width="27" height="19.6" as="geometry" />
        </mxCell>
      </root>
    </mxGraphModel>
  </diagram>
</mxfile>
